HIERARCHY
ROOT pelvis
{
  OFFSET 0 100 0
  CHANNELS 6 Xposition Yposition Zposition Zrotation Xrotation Yrotation
  JOINT pelvis_right_femur
  {
    OFFSET -10.78128 -3.44521 -0.5502486
    CHANNELS 3 Zrotation Xrotation Yrotation
    JOINT right_femur_tibia
    {
      OFFSET -0.8047443 -44.0398 -0.1307829
      CHANNELS 3 Zrotation Xrotation Yrotation
      JOINT right_tibia_foot
      {
        OFFSET 3.006224 -47.83518 -5
        CHANNELS 3 Zrotation Xrotation Yrotation
        End Site
        {
          OFFSET 0 -5 15
        }
      }
    }
  }
  JOINT pelvis_left_femur
  {
    OFFSET 10.78128 -3.44521 -0.5502486
    CHANNELS 3 Zrotation Xrotation Yrotation
    JOINT left_femur_tibia
    {
      OFFSET 0.8047443 -44.0398 -0.1307829
      CHANNELS 3 Zrotation Xrotation Yrotation
      JOINT left_tibia_foot
      {
        OFFSET -4.370144 -48.10324 -4.275266
        CHANNELS 3 Zrotation Xrotation Yrotation
        End Site
        {
          OFFSET 0 -5 15
        }
      }
    }
  }
  JOINT pelvis_spine1
  {
    OFFSET 0 6.468898 -3.129235
    CHANNELS 3 Zrotation Xrotation Yrotation
    JOINT spine1
    {
      OFFSET 0 23.15396 4.99043
      CHANNELS 3 Zrotation Xrotation Yrotation
      JOINT spine2
      {
        OFFSET 0 20.79997 -5.064912
        CHANNELS 3 Zrotation Xrotation Yrotation
        JOINT neck
        {
          OFFSET 0 14.38658 9.616178
          CHANNELS 3 Zrotation Xrotation Yrotation
          End Site
          {
            OFFSET 0 20 0
          }
        }
      }
      JOINT right_manubrium
      {
        OFFSET -5.722621 16.35077 3.967754
        CHANNELS 3 Zrotation Xrotation Yrotation
        JOINT right_clavicle
        {
          OFFSET -13.16364 1.694482 -4.693211
          CHANNELS 3 Zrotation Xrotation Yrotation
          JOINT right_humerus
          {
            OFFSET -28.5034 -0.3100689 -2.792744
            CHANNELS 3 Zrotation Xrotation Yrotation
            JOINT right_radius
            {
              OFFSET -25.15693 0.02248979 -1.271978
              CHANNELS 3 Zrotation Xrotation Yrotation
              End Site
              {
                OFFSET -15 0 0
              }
            }
          }
        }
      }
      JOINT left_manubrium
      {
        OFFSET 5.722621 16.35077 3.967754
        CHANNELS 3 Zrotation Xrotation Yrotation
        JOINT left_clavicle
        {
          OFFSET 13.16364 1.694482 -4.693211
          CHANNELS 3 Zrotation Xrotation Yrotation
          JOINT left_humerus
          {
            OFFSET 29.39168 -1.063119 -2.237045
            CHANNELS 3 Zrotation Xrotation Yrotation
            JOINT left_radius
            {
              OFFSET 24.59957 -0.9528479 0.9047498
              CHANNELS 3 Zrotation Xrotation Yrotation
              End Site
              {
                OFFSET 15 -0 -0
              }
            }
          }
        }
      }
    }
  }
}
MOTION
Frames: 10
Frame Time: 0.0416666666667
0 103.5113 0 1.723801 -1.418714 -0.2601 2.263429 -10.10014 9.021292 -1.924631e-09 35.13283 -8.24953e-09 -5.805415 -19.04228 -3.136437 -7.552153 9.844356 -23.88031 3.820631e-08 5.283512 2.254835e-09 8.86442 -16.02192 28.50187 -4.492343 -5.304925 5.168957 2.37375 9.416575 -7.660787 1.145067 22.72954 6.676295 3.304984 -23.44392 8.629295 6.508856 -20.3247 11.64409 85.32765 35.60613 -19.34893 -6.344671e-09 -3.347761e-09 16.35841 -6.990049 7.770703 4.068684 5.48396 -19.79251 -1.546483 -94.78947 29.56447 23.24914 2.892722e-09 -4.901499e-09 -16.02807 4.379202 18.68235 8.518809
0.2561411 103.7266 1.368193 1.457787 -1.331953 -0.3635883 2.547934 -12.86157 8.989221 -8.568439e-10 37.84194 -6.574767e-09 -5.646266 -17.92336 -3.451747 -7.378859 10.80487 -23.70825 2.870854e-08 5.241108 2.792473e-09 8.273246 -16.72218 27.30417 -4.291882 -4.781477 4.86428 2.389462 9.35296 -7.803086 1.151249 22.59055 6.789812 3.230474 -23.62399 8.841028 6.523215 -20.14813 11.61823 85.91653 35.52939 -19.6794 -4.413364e-09 -2.754885e-09 16.36979 -6.982665 8.080336 4.103935 5.277031 -19.66412 -1.79434 -94.72471 29.7864 23.15665 2.054807e-09 -3.578179e-09 -16.21533 4.051529 18.25653 9.106257
0.5258731 103.9411 2.810411 1.112253 -1.03869 -0.2912681 3.001375 -16.02987 8.79579 3.512479e-10 38.82934 -4.973237e-09 -5.671744 -16.48711 -3.588773 -7.118792 11.57958 -23.34974 1.718362e-08 5.267408 3.307957e-09 7.547164 -17.52182 25.94522 -3.997137 -4.127697 4.533929 2.446521 9.259166 -7.924249 1.152715 22.37163 6.952923 3.247579 -23.94776 9.033728 6.482492 -19.93723 11.58922 86.3915 35.48082 -19.97707 -1.947988e-09 -2.105068e-09 16.26045 -7.095154 8.363325 4.278532 5.189424 -19.60316 -2.036332 -94.59649 29.86529 22.94995 1.261854e-09 -2.201712e-09 -16.57635 3.869294 17.76479 9.53444
0.8010074 104.0791 4.424251 0.737346 -0.5117415 -0.08384058 3.555998 -19.32577 8.450531 1.362283e-09 37.88655 -3.240121e-09 -5.772043 -14.71969 -3.487036 -6.836496 12.22743 -22.84222 6.039056e-09 5.359374 2.91714e-09 6.727337 -18.4192 24.56986 -3.647786 -3.455513 4.226053 2.531884 9.124968 -8.009908 1.159903 22.08834 7.173437 3.378581 -24.41187 9.212151 6.384388 -19.68067 11.5432 86.77933 35.43977 -20.28566 4.372818e-10 -1.349078e-09 16.01428 -7.386742 8.587496 4.585775 5.270034 -19.61661 -2.229482 -94.45645 29.77465 22.61067 7.26305e-10 -1.120381e-09 -17.18368 3.847819 17.23725 9.775035
1.064827 104.0517 6.21838 0.3981817 0.1254616 0.1989002 4.146275 -22.58179 8.035369 1.826971e-09 35.04952 -1.515017e-09 -5.898634 -12.8243 -3.186909 -6.593109 12.72675 -22.25907 -4.671526e-09 5.574765 2.053162e-09 5.973253 -19.41794 23.42181 -3.304845 -2.793044 3.974917 2.633556 8.994941 -8.05211 1.172138 21.76835 7.441905 3.619435 -24.92656 9.363026 6.255674 -19.37585 11.50104 86.96511 35.40317 -20.6036 2.849084e-09 -6.098571e-10 15.62547 -7.806633 8.709585 4.943869 5.529232 -19.73246 -2.387542 -94.19191 29.55363 22.04322 5.886121e-10 -3.156205e-10 -18.07605 3.981161 16.72654 9.792833
1.308733 103.8221 8.2483 0.07265378 0.8813214 0.5057408 4.739251 -25.50845 7.576661 1.978801e-09 30.89913 9.240299e-11 -6.068794 -10.83746 -2.720225 -6.367878 13.08136 -21.61722 -1.379423e-08 5.952228 7.64166e-10 5.219912 -20.34111 22.39137 -2.959357 -2.212258 3.77868 2.745493 8.850979 -8.054454 1.192719 21.40389 7.72091 3.931282 -25.48219 9.478237 6.103342 -19.04314 11.44351 86.96103 35.37494 -20.87972 4.956409e-09 1.521059e-10 15.14457 -8.30573 8.757714 5.34474 5.890557 -19.88234 -2.482188 -93.86875 29.21516 21.41011 7.602709e-10 1.544043e-10 -19.04958 4.212651 16.22958 9.665754
1.528139 103.3993 10.6179 -0.268612 1.719458 0.809029 5.320239 -27.95788 7.102075 2.341605e-09 26.18906 1.433352e-09 -6.273105 -8.955992 -2.206262 -6.109317 13.4283 -20.91546 -1.995539e-08 6.600538 -5.759234e-10 4.352337 -20.99988 21.27865 -2.590714 -1.773615 3.611695 2.870264 8.666775 -8.05211 1.221316 21.01914 7.953574 4.232963 -26.02467 9.549154 5.927958 -18.68291 11.35058 86.91588 35.33829 -21.15537 6.326971e-09 8.035218e-10 14.58822 -8.79944 8.806598 5.74479 6.259258 -20.02144 -2.499076 -93.51274 28.80109 20.77732 9.879597e-10 2.376987e-10 -19.99723 4.481082 15.73903 9.478875
1.721195 102.8346 13.40909 -0.619308 2.477128 1.105963 5.841124 -29.76872 6.671267 2.993014e-09 22.03469 2.481251e-09 -6.493716 -7.493465 -1.824017 -5.800313 13.78847 -20.19071 -2.316405e-08 7.69516 -1.259712e-09 3.337486 -21.24524 20.01459 -2.216648 -1.467709 3.447487 2.991751 8.440602 -8.062419 1.261946 20.7078 8.082302 4.434126 -26.44904 9.577254 5.742211 -18.29716 11.22462 87.01781 35.29414 -21.43814 6.875191e-09 1.266985e-09 13.99709 -9.191607 8.916459 6.080688 6.522252 -20.10565 -2.456373 -93.18442 28.42589 20.1745 1.050468e-09 1.451061e-10 -20.76898 4.709773 15.27857 9.333527
1.900125 102.273 16.73544 -1.015986 3.139223 1.416715 6.304251 -30.67313 6.322743 4.09127e-09 19.42552 3.182269e-09 -6.810656 -6.409588 -1.605402 -5.42212 14.14677 -19.465 -2.288871e-08 9.633881 -7.763735e-10 2.120883 -20.77314 18.4214 -1.80804 -1.35038 3.27623 3.107313 8.189991 -8.102602 1.298399 20.45519 8.072934 4.494186 -26.76936 9.536605 5.590984 -17.90796 11.0707 87.27781 35.28613 -21.70488 6.416978e-09 1.498355e-09 13.38231 -9.383575 9.127393 6.321426 6.543869 -20.07195 -2.355086 -92.9136 28.12039 19.81904 7.586657e-10 -4.829446e-11 -21.10879 4.854571 14.84709 9.316589
2.079534 101.8909 20.60272 -1.426259 3.573638 1.761694 6.663882 -30.60866 6.088233 5.285828e-09 18.94297 3.222232e-09 -7.311555 -5.691564 -1.574995 -5.011293 14.35189 -18.75908 -2.138106e-08 12.6041 2.338237e-09 0.8986566 -19.48293 16.6117 -1.400711 -1.371177 3.095787 3.204905 8.002589 -8.177429 1.301684 20.2668 7.929408 4.410995 -26.93681 9.393568 5.532504 -17.53649 10.93753 87.56484 35.38738 -21.91122 5.551573e-09 1.353497e-09 12.71656 -9.333482 9.437835 6.437256 6.255728 -19.94899 -2.259899 -92.53818 27.90849 19.6993 1.019368e-10 4.035829e-11 -20.93961 4.931265 14.45346 9.409185
